<?xml version="1.0" standalone="no"?>
<!DOCTYPE svg PUBLIC "-//W3C//DTD SVG 20010904//EN"
 "http://www.w3.org/TR/2001/REC-SVG-20010904/DTD/svg10.dtd">
<svg version="1.0" xmlns="http://www.w3.org/2000/svg"
 width="600.000000pt" height="480.000000pt" viewBox="0 0 600.000000 480.000000"
 preserveAspectRatio="xMidYMid meet">
<metadata>
Created by potrace 1.16, written by Peter Selinger 2001-2019
</metadata>
<g transform="translate(0.000000,480.000000) scale(0.100000,-0.100000)"
fill="#077bff" stroke="none">
<path d="M2340 4639 c-324 -42 -632 -173 -882 -376 -37 -30 -109 -98 -160
-152 -216 -225 -354 -485 -434 -812 l-28 -114 -3 -616 -4 -615 111 -117 c81
-84 118 -117 135 -117 l24 0 4 683 c3 645 5 687 25 778 64 298 194 540 402
750 157 159 314 264 506 339 247 96 406 114 942 107 415 -6 463 -11 657 -72
226 -70 422 -191 600 -369 208 -208 341 -451 407 -744 21 -94 22 -121 25 -784
l4 -688 23 0 c17 0 57 34 140 120 l116 121 0 472 c0 511 -9 690 -40 842 -105
512 -444 956 -909 1190 -178 90 -354 144 -549 170 -120 16 -994 19 -1112 4z"/>
<path d="M2335 4164 c-456 -80 -841 -413 -979 -847 -59 -187 -59 -172 -63
-1046 l-3 -803 112 -118 c88 -91 119 -118 141 -119 l27 -1 0 874 c0 723 3 888
15 957 78 447 433 783 885 839 46 5 233 10 415 10 449 0 555 -15 742 -105 267
-130 467 -373 545 -665 22 -85 22 -87 25 -998 l4 -913 27 3 c19 2 59 36 140
120 l113 117 -4 808 c-3 788 -4 810 -25 905 -58 255 -164 451 -342 628 -191
191 -420 310 -679 354 -129 22 -973 22 -1096 0z"/>
<path d="M2380 3695 c-285 -61 -511 -278 -592 -570 -23 -80 -23 -80 -26 -1113
l-3 -1033 118 -124 c82 -86 125 -124 141 -125 l22 0 0 1113 c0 956 2 1121 15
1176 47 200 216 363 420 406 101 21 719 21 820 0 204 -43 373 -206 420 -406
13 -55 15 -220 15 -1176 l0 -1113 23 0 c15 0 57 38 140 124 l117 124 0 984 c0
605 -4 1015 -10 1064 -42 334 -288 601 -616 669 -101 21 -905 21 -1004 0z"/>

</g>
</svg>
