<?xml version="1.0" encoding="utf-8" ?>
<svg xmlns="http://www.w3.org/2000/svg" xmlns:xlink="http://www.w3.org/1999/xlink" width="1024" height="1024">
	<path fill="#DDD4FF" transform="scale(2 2)" d="M121.196 57.6259C135.125 91.4003 171.921 100.054 199.857 77.4745C219.483 61.6119 211.668 42.4836 213.738 23.4615L299.74 23.4615C295.907 38.9876 297.537 63.624 309.351 75.2445C331.27 96.806 364.525 93.2843 382.678 68.1943C385.579 64.184 387.805 59.6542 391.275 56.0945C393.682 59.136 396.986 61.7068 399.722 64.4767L447.035 111.728C450.392 115.123 453.66 118.797 457.388 121.786C438.075 130.401 421.421 148.194 423.222 170.587C426.273 208.534 456.952 212.834 488.286 210.191L488.286 302.56C476.919 301.535 465.339 299.957 454.165 303.353C432.062 310.069 419.159 337.44 426.038 359.069C430.706 373.745 444.354 383.068 457.388 389.858C451.123 395.87 445.217 402.386 439.116 408.58L409.413 438.478C403.369 444.671 397.592 451.094 391.275 457.02C380.771 440.734 369.75 425.332 348.134 424.905C330.221 424.551 312.716 433.081 304.038 448.996C297.396 461.176 299.403 472.54 299.212 485.689C298.937 485.897 278.341 485.686 275.819 485.685L234.377 485.687C227.519 485.69 220.584 485.94 213.738 485.689C212.938 475.076 214.909 465.584 211.15 455.124C202.587 431.293 174.314 419.04 150.757 427.812C137.619 432.704 127.673 444.517 121.947 457.02C113.979 450.584 106.918 442.87 99.7257 435.593L66.7301 402.599C62.5396 398.417 58.6446 393.898 54.3242 389.858C62.016 385.574 69.1549 381.193 75.3388 374.78C92.8237 356.649 90.2813 329.442 72.4955 312.409C57.5359 298.083 42.0921 302.156 23.7644 302.56C23.4197 299.376 23.7388 295.97 23.7475 292.756L23.764 272.667C23.7676 251.85 23.5242 231.005 23.7644 210.191C46.4808 209.001 67.1863 215.793 81.4066 190.464C94.4912 167.157 88.1581 144.054 65.5928 130.122C61.9399 127.866 58.0679 125.998 54.3242 123.9C60.0554 118.713 65.3856 112.877 70.8151 107.369L102.533 75.3207C108.577 69.3023 114.497 62.9169 121.196 57.6259ZM274.964 127.16L274.964 219.819C279.945 223.121 285.293 225.961 290.482 228.923L316.06 243.481C321.584 246.611 327.788 249.544 332.736 253.497C308.087 270.006 281.069 282.858 256.648 299.665C247.641 292.893 237.646 287.409 227.899 281.785L200.781 265.915C193.682 261.796 185.767 257.896 179.417 252.677C198.787 242.749 218.085 232.066 236.766 220.861L236.766 127.16C185.106 134.986 143.046 170.572 128.89 220.861C107.089 287.029 148.394 360.49 213.666 381.95C283.793 405.007 359.381 367.238 382.225 296.794C404.154 229.174 366.147 154.247 298.129 132.214C290.987 129.9 282.514 126.932 274.964 127.16Z"/>
</svg>
